<?xml version="1.0" encoding="UTF-8" standalone="no"?>
<svg
   width="425.56168"
   zoomAndPan="magnify"
   viewBox="0 0 319.17126 90.629389"
   height="120.83919"
   preserveAspectRatio="xMidYMid"
   version="1.0"
   id="svg12"
   sodipodi:docname="logo-full-color-light-trans.svg"
   inkscape:version="1.3 (0e150ed6c4, 2023-07-21)"
   inkscape:export-filename="..\aphii\logo-full-color-trans-dark.svg"
   inkscape:export-xdpi="96"
   inkscape:export-ydpi="96"
   xmlns:inkscape="http://www.inkscape.org/namespaces/inkscape"
   xmlns:sodipodi="http://sodipodi.sourceforge.net/DTD/sodipodi-0.dtd"
   xmlns="http://www.w3.org/2000/svg"
   xmlns:svg="http://www.w3.org/2000/svg">
  <sodipodi:namedview
     id="namedview12"
     pagecolor="#ffffff"
     bordercolor="#111111"
     borderopacity="1"
     inkscape:showpageshadow="0"
     inkscape:pageopacity="0"
     inkscape:pagecheckerboard="1"
     inkscape:deskcolor="#d1d1d1"
     inkscape:zoom="1.542"
     inkscape:cx="250"
     inkscape:cy="301.88067"
     inkscape:window-width="1920"
     inkscape:window-height="1009"
     inkscape:window-x="-8"
     inkscape:window-y="-8"
     inkscape:window-maximized="1"
     inkscape:current-layer="svg12" />
  <defs
     id="defs5">
    <clipPath
       id="1911eaaf64">
      <path
         d="M 135.33594,127 H 196 v 61.87891 h -60.66406 z m 0,0"
         clip-rule="nonzero"
         id="path1" />
    </clipPath>
    <clipPath
       id="be350916df">
      <path
         d="m 179,98.128906 h 60.58594 V 188.87891 H 179 Z m 0,0"
         clip-rule="nonzero"
         id="path2" />
    </clipPath>
    <clipPath
       id="7a362267e6">
      <path
         d="M 135.33594,181 H 186 v 7.87891 h -50.66406 z m 0,0"
         clip-rule="nonzero"
         id="path3" />
    </clipPath>
    <clipPath
       id="5539cd0f78">
      <path
         d="m 179,111 h 60.58594 v 77.87891 H 179 Z m 0,0"
         clip-rule="nonzero"
         id="path4" />
    </clipPath>
    <clipPath
       id="9e61ffce1e">
      <path
         d="m 179,98.128906 h 9 V 113 h -9 z m 0,0"
         clip-rule="nonzero"
         id="path5" />
    </clipPath>
  </defs>
  <g
     id="g13"
     inkscape:export-filename="..\..\..\..\..\..\..\..\Users\adamm\Pictures\Inkscape\Apii\logo-full-color-dark-trans.svg"
     inkscape:export-xdpi="96"
     inkscape:export-ydpi="96"
     transform="translate(-135.33594,-97.894058)">
    <g
       clip-path="url(#1911eaaf64)"
       id="g6"
       inkscape:export-filename="logo-color-trans.svg"
       inkscape:export-xdpi="96"
       inkscape:export-ydpi="96">
      <path
         fill="#38b6ff"
         d="m 187.49609,127.46094 h -16.90625 l -35.2539,61.0625 h 50.71875 l 9.89453,-17.13672 -7.01563,-12.14453 -1.4375,-2.4961 -1.4414,2.4961 -8.45313,14.64062 h -16.90234 z m 0,0"
         fill-opacity="1"
         fill-rule="evenodd"
         id="path6" />
    </g>
    <g
       clip-path="url(#be350916df)"
       id="g7">
      <path
         fill="#83858c"
         d="m 239.65625,188.52344 -26.08203,-45.17188 -26.07813,-45.171872 -8.45312,14.644532 3.89062,6.73437 4.5625,7.90235 4.63672,8.03515 22.16406,38.38672 4.5625,7.90235 3.89063,6.73828 z m 0,0"
         fill-opacity="1"
         fill-rule="evenodd"
         id="path7" />
    </g>
    <path
       fill="#2493d4"
       d="m 187.49609,127.46094 -13.1289,6.9375 -27.35938,47.38672 13.69141,-7.90235 z m 0,0"
       fill-opacity="1"
       fill-rule="evenodd"
       id="path8" />
    <g
       clip-path="url(#7a362267e6)"
       id="g9">
      <path
         fill="#2493d4"
         d="m 147.00781,181.78516 -11.67187,6.73828 h 50.20312 l -3.65234,-6.73828 z m 0,0"
         fill-opacity="1"
         fill-rule="evenodd"
         id="path9" />
    </g>
    <path
       fill="#2493d4"
       d="m 177.60156,173.88281 4.28516,7.90235 4.39453,-7.90235 1.73047,-3.11719 -0.51563,-14.01953 z m 0,0"
       fill-opacity="1"
       fill-rule="evenodd"
       id="path10" />
    <g
       clip-path="url(#5539cd0f78)"
       id="g11">
      <path
         fill="#68696e"
         d="m 192.13281,135.49609 22.16406,38.38672 4.5625,7.90235 3.89063,6.73828 h 16.90625 l -11.67188,-6.73828 -40.48828,-70.12891 -8.45312,1.16797 3.89062,6.73437 4.5625,7.90235 z m 0,0"
         fill-opacity="1"
         fill-rule="evenodd"
         id="path11" />
    </g>
    <g
       clip-path="url(#9e61ffce1e)"
       id="g12">
      <path
         fill="#8b8d93"
         d="M 187.49609,111.65625 V 98.179688 l -8.45312,14.644532 z m 0,0"
         fill-opacity="1"
         fill-rule="evenodd"
         id="path12" />
    </g>
  </g>
  <text
     xml:space="preserve"
     style="font-style:normal;font-weight:normal;font-size:99.4678px;line-height:1.25;font-family:sans-serif;fill:#ffffff;fill-opacity:1;stroke:none;stroke-width:2.4867"
     x="114.53061"
     y="71.201073"
     id="text1"
     transform="scale(1.00389,0.99612507)"><tspan
       sodipodi:role="line"
       id="tspan1"
       style="font-style:normal;font-variant:normal;font-weight:normal;font-stretch:normal;font-family:Arial;-inkscape-font-specification:Arial;fill:#ffffff;stroke-width:2.4867"
       x="114.53061"
       y="71.201073">aphii</tspan></text>
</svg>
